<svg width="853" height="950" viewBox="0 0 853 950" fill="none" xmlns="http://www.w3.org/2000/svg">
<circle cx="786.5" cy="731.5" r="66.5" fill="#FFCE50"/>
<circle cx="92.5" cy="545.5" r="45.5" fill="#5F6CDE"/>
<circle cx="810.5" cy="156.5" r="17.5" fill="#FF6476"/>
<circle cx="92" cy="132" r="92" fill="#79D7FF"/>
<g filter="url(#filter0_b_1036_5)">
<path d="M392 530C392 513.431 405.431 500 422 500H732C748.569 500 762 513.431 762 530V840C762 856.569 748.569 870 732 870H422C405.431 870 392 856.569 392 840V530Z" fill="#979CA9"/>
</g>
<g filter="url(#filter1_b_1036_5)">
<path d="M92 635C92 560.442 152.442 500 227 500V500C301.558 500 362 560.442 362 635V950H92V635Z" fill="#979CA9"/>
</g>
<path d="M94 130C94 113.431 107.431 100 124 100H432C448.569 100 462 113.431 462 130V440C462 456.569 448.569 470 432 470H114C102.954 470 94 461.046 94 450V130Z" fill="#979CA9"/>
<path d="M494 0H764V335C764 409.558 703.558 470 629 470V470C554.442 470 494 409.558 494 335V0Z" fill="#979CA9"/>
<circle cx="762" cy="319" r="33" fill="white"/>
<path d="M773.88 313.41C773.88 311.074 771.973 309.182 769.618 309.182C767.263 309.182 765.355 311.074 765.355 313.41C765.355 315.334 766.65 316.957 768.419 317.469C768.387 318.32 768.195 318.976 767.833 319.42C767.012 320.434 765.206 320.604 763.293 320.778C761.791 320.915 760.235 321.063 758.961 321.671V314.061C760.693 313.521 761.945 311.92 761.945 310.028C761.945 307.692 760.038 305.8 757.683 305.8C755.328 305.8 753.42 307.692 753.42 310.028C753.42 311.92 754.672 313.521 756.404 314.061V324.594C754.672 325.138 753.42 326.74 753.42 328.632C753.42 330.968 755.328 332.86 757.683 332.86C760.038 332.86 761.945 330.968 761.945 328.632C761.945 326.835 760.816 325.297 759.217 324.689C759.382 324.414 759.633 324.171 760.011 323.981C760.874 323.547 762.164 323.431 763.533 323.304C765.781 323.098 768.328 322.86 769.831 321.01C770.577 320.091 770.955 318.907 770.982 317.422C772.665 316.851 773.88 315.271 773.88 313.41ZM757.683 309.182C758.152 309.182 758.535 309.563 758.535 310.028C758.535 310.493 758.152 310.874 757.683 310.874C757.214 310.874 756.83 310.493 756.83 310.028C756.83 309.563 757.214 309.182 757.683 309.182ZM757.683 329.477C757.214 329.477 756.83 329.097 756.83 328.632C756.83 328.167 757.214 327.786 757.683 327.786C758.152 327.786 758.535 328.167 758.535 328.632C758.535 329.097 758.152 329.477 757.683 329.477ZM769.618 312.565C770.087 312.565 770.47 312.945 770.47 313.41C770.47 313.876 770.087 314.256 769.618 314.256C769.149 314.256 768.765 313.876 768.765 313.41C768.765 312.945 769.149 312.565 769.618 312.565Z" fill="#5F6CDE"/>
<circle cx="683" cy="512" r="27" fill="#5F6CDE"/>
<path d="M678.812 511.5H678.031C676.305 511.5 674.906 512.901 674.906 514.631V517.744C674.906 519.473 676.305 520.875 678.031 520.875H678.812C679.675 520.875 680.375 520.174 680.375 519.31V513.065C680.375 512.201 679.675 511.5 678.812 511.5ZM688.969 511.5H688.188C687.325 511.5 686.625 512.201 686.625 513.065V519.31C686.625 520.174 687.325 520.875 688.188 520.875H688.969C690.695 520.875 692.094 519.473 692.094 517.744V514.631C692.094 512.902 690.695 511.5 688.969 511.5ZM683.5 499C676.513 499 671.223 504.817 671 511.5V516.969C671 517.4 671.35 517.75 671.781 517.75H672.562C672.994 517.75 673.344 517.4 673.344 516.969V511.5C673.344 505.901 677.901 501.354 683.5 501.353C689.099 501.354 693.656 505.901 693.656 511.5V516.969C693.656 517.4 694.006 517.75 694.438 517.75H695.219C695.65 517.75 696 517.4 696 516.969V511.5C695.777 504.817 690.487 499 683.5 499Z" fill="white"/>
<g filter="url(#filter2_d_1036_5)">
<circle cx="386" cy="100" r="34" fill="#36394E"/>
</g>
<path d="M388.606 114.402C388.297 115.547 387.132 115.814 386 115.814C384.868 115.814 383.702 115.547 383.394 114.402C382.935 112.69 382.159 108.399 382.159 106.403C382.159 104.286 384.028 103.768 386 103.768C387.972 103.768 389.84 104.286 389.84 106.403C389.84 108.387 389.068 112.678 388.606 114.402ZM381.971 102.356C380.85 101.253 380.174 99.6954 380.244 97.9833C380.367 94.9885 382.788 92.5653 385.772 92.4494C389.052 92.322 391.761 94.9629 391.761 98.2269C391.761 99.8427 391.097 101.306 390.029 102.356C389.868 102.514 389.884 102.776 390.066 102.909C390.625 103.317 391.054 103.833 391.34 104.437C391.445 104.657 391.73 104.717 391.907 104.551C393.637 102.922 394.701 100.589 394.639 98.0118C394.527 93.422 390.822 89.6877 386.25 89.5575C381.371 89.4186 377.359 93.3613 377.359 98.2269C377.359 100.718 378.411 102.967 380.092 104.55C380.269 104.717 380.555 104.657 380.659 104.437C380.946 103.833 381.375 103.317 381.934 102.909C382.115 102.777 382.132 102.514 381.971 102.356V102.356ZM386 84.9766C378.571 84.9766 372.558 91.0106 372.558 98.4678C372.558 103.888 375.715 108.445 380.103 110.598C380.364 110.726 380.66 110.505 380.616 110.218C380.473 109.284 380.355 108.355 380.291 107.548C380.282 107.437 380.222 107.338 380.131 107.276C377.286 105.361 375.416 102.095 375.439 98.4016C375.474 92.6053 380.197 87.8827 385.972 87.8676C391.808 87.8523 396.561 92.6134 396.561 98.4678C396.561 102.198 394.632 105.484 391.722 107.374C391.662 108.219 391.538 109.216 391.384 110.218C391.34 110.505 391.636 110.726 391.896 110.598C396.275 108.449 399.442 103.9 399.442 98.4678C399.442 91.0118 393.43 84.9766 386 84.9766ZM386 94.6132C383.879 94.6132 382.159 96.339 382.159 98.4678C382.159 100.597 383.879 102.322 386 102.322C388.121 102.322 389.84 100.597 389.84 98.4678C389.84 96.339 388.121 94.6132 386 94.6132Z" fill="white"/>
<g filter="url(#filter3_d_1036_5)">
<circle cx="98" cy="752" r="34" fill="#FF6476"/>
</g>
<path d="M100.592 744H88.0747C86.9288 744 86 744.929 86 746.075V758.592C86 759.738 86.9288 760.667 88.0747 760.667H100.592C101.738 760.667 102.667 759.738 102.667 758.592V746.075C102.667 744.929 101.738 744 100.592 744ZM108.812 745.636L104.056 748.918V755.749L108.812 759.026C109.733 759.66 111 759.013 111 757.906V746.756C111 745.654 109.737 745.003 108.812 745.636Z" fill="white"/>
<defs>
<filter id="filter0_b_1036_5" x="362" y="470" width="430" height="430" filterUnits="userSpaceOnUse" color-interpolation-filters="sRGB">
<feFlood flood-opacity="0" result="BackgroundImageFix"/>
<feGaussianBlur in="BackgroundImageFix" stdDeviation="15"/>
<feComposite in2="SourceAlpha" operator="in" result="effect1_backgroundBlur_1036_5"/>
<feBlend mode="normal" in="SourceGraphic" in2="effect1_backgroundBlur_1036_5" result="shape"/>
</filter>
<filter id="filter1_b_1036_5" x="62" y="470" width="330" height="510" filterUnits="userSpaceOnUse" color-interpolation-filters="sRGB">
<feFlood flood-opacity="0" result="BackgroundImageFix"/>
<feGaussianBlur in="BackgroundImageFix" stdDeviation="15"/>
<feComposite in2="SourceAlpha" operator="in" result="effect1_backgroundBlur_1036_5"/>
<feBlend mode="normal" in="SourceGraphic" in2="effect1_backgroundBlur_1036_5" result="shape"/>
</filter>
<filter id="filter2_d_1036_5" x="322" y="51" width="128" height="128" filterUnits="userSpaceOnUse" color-interpolation-filters="sRGB">
<feFlood flood-opacity="0" result="BackgroundImageFix"/>
<feColorMatrix in="SourceAlpha" type="matrix" values="0 0 0 0 0 0 0 0 0 0 0 0 0 0 0 0 0 0 127 0" result="hardAlpha"/>
<feOffset dy="15"/>
<feGaussianBlur stdDeviation="15"/>
<feComposite in2="hardAlpha" operator="out"/>
<feColorMatrix type="matrix" values="0 0 0 0 0 0 0 0 0 0 0 0 0 0 0 0 0 0 0.1 0"/>
<feBlend mode="normal" in2="BackgroundImageFix" result="effect1_dropShadow_1036_5"/>
<feBlend mode="normal" in="SourceGraphic" in2="effect1_dropShadow_1036_5" result="shape"/>
</filter>
<filter id="filter3_d_1036_5" x="34" y="703" width="128" height="128" filterUnits="userSpaceOnUse" color-interpolation-filters="sRGB">
<feFlood flood-opacity="0" result="BackgroundImageFix"/>
<feColorMatrix in="SourceAlpha" type="matrix" values="0 0 0 0 0 0 0 0 0 0 0 0 0 0 0 0 0 0 127 0" result="hardAlpha"/>
<feOffset dy="15"/>
<feGaussianBlur stdDeviation="15"/>
<feComposite in2="hardAlpha" operator="out"/>
<feColorMatrix type="matrix" values="0 0 0 0 0 0 0 0 0 0 0 0 0 0 0 0 0 0 0.1 0"/>
<feBlend mode="normal" in2="BackgroundImageFix" result="effect1_dropShadow_1036_5"/>
<feBlend mode="normal" in="SourceGraphic" in2="effect1_dropShadow_1036_5" result="shape"/>
</filter>
</defs>
</svg>
