<svg width="761" height="780" viewBox="0 0 761 780" fill="none" xmlns="http://www.w3.org/2000/svg">
<circle cx="728" cy="268" r="33" fill="white"/>
<path d="M739.88 262.41C739.88 260.074 737.973 258.182 735.618 258.182C733.263 258.182 731.355 260.074 731.355 262.41C731.355 264.334 732.65 265.957 734.419 266.469C734.387 267.32 734.195 267.976 733.833 268.42C733.012 269.434 731.206 269.604 729.293 269.778C727.791 269.915 726.235 270.063 724.961 270.671V263.061C726.693 262.521 727.945 260.92 727.945 259.028C727.945 256.692 726.038 254.8 723.683 254.8C721.328 254.8 719.42 256.692 719.42 259.028C719.42 260.92 720.672 262.521 722.404 263.061V273.594C720.672 274.138 719.42 275.74 719.42 277.632C719.42 279.968 721.328 281.86 723.683 281.86C726.038 281.86 727.945 279.968 727.945 277.632C727.945 275.835 726.816 274.297 725.217 273.689C725.382 273.414 725.633 273.171 726.011 272.981C726.874 272.547 728.164 272.431 729.533 272.304C731.781 272.098 734.328 271.86 735.831 270.01C736.577 269.091 736.955 267.907 736.982 266.422C738.665 265.851 739.88 264.271 739.88 262.41ZM723.683 258.182C724.152 258.182 724.535 258.563 724.535 259.028C724.535 259.493 724.152 259.874 723.683 259.874C723.214 259.874 722.83 259.493 722.83 259.028C722.83 258.563 723.214 258.182 723.683 258.182ZM723.683 278.477C723.214 278.477 722.83 278.097 722.83 277.632C722.83 277.167 723.214 276.786 723.683 276.786C724.152 276.786 724.535 277.167 724.535 277.632C724.535 278.097 724.152 278.477 723.683 278.477ZM735.618 261.565C736.087 261.565 736.47 261.945 736.47 262.41C736.47 262.876 736.087 263.256 735.618 263.256C735.149 263.256 734.765 262.876 734.765 262.41C734.765 261.945 735.149 261.565 735.618 261.565Z" fill="#5F6CDE"/>
<circle cx="649" cy="461" r="27" fill="#5F6CDE"/>
<path d="M644.812 460.5H644.031C642.305 460.5 640.906 461.901 640.906 463.631V466.744C640.906 468.473 642.305 469.875 644.031 469.875H644.812C645.675 469.875 646.375 469.174 646.375 468.31V462.065C646.375 461.201 645.675 460.5 644.812 460.5ZM654.969 460.5H654.188C653.325 460.5 652.625 461.201 652.625 462.065V468.31C652.625 469.174 653.325 469.875 654.188 469.875H654.969C656.695 469.875 658.094 468.473 658.094 466.744V463.631C658.094 461.902 656.695 460.5 654.969 460.5ZM649.5 448C642.513 448 637.223 453.817 637 460.5V465.969C637 466.4 637.35 466.75 637.781 466.75H638.562C638.994 466.75 639.344 466.4 639.344 465.969V460.5C639.344 454.901 643.901 450.354 649.5 450.353C655.099 450.354 659.656 454.901 659.656 460.5V465.969C659.656 466.4 660.006 466.75 660.438 466.75H661.219C661.65 466.75 662 466.4 662 465.969V460.5C661.777 453.817 656.487 448 649.5 448Z" fill="white"/>
<g filter="url(#filter0_d_1007_43)">
<circle cx="352" cy="49" r="34" fill="#36394E"/>
</g>
<path d="M354.606 63.4022C354.297 64.5471 353.132 64.8138 352 64.8138C350.868 64.8138 349.702 64.5471 349.394 63.4022C348.935 61.6899 348.159 57.3995 348.159 55.403C348.159 53.2856 350.028 52.768 352 52.768C353.972 52.768 355.84 53.2856 355.84 55.403C355.84 57.3875 355.068 61.6776 354.606 63.4022ZM347.971 51.3559C346.85 50.2532 346.174 48.6954 346.244 46.9833C346.367 43.9885 348.788 41.5653 351.772 41.4494C355.052 41.322 357.761 43.9629 357.761 47.2269C357.761 48.8427 357.097 50.3056 356.029 51.3557C355.868 51.5135 355.884 51.7765 356.066 51.9091C356.625 52.3165 357.054 52.8332 357.34 53.4366C357.445 53.6567 357.73 53.7173 357.907 53.5505C359.637 51.9218 360.701 49.5885 360.639 47.0118C360.527 42.422 356.822 38.6877 352.25 38.5575C347.371 38.4186 343.359 42.3613 343.359 47.2269C343.359 49.7181 344.411 51.9669 346.092 53.5503C346.269 53.7172 346.555 53.6569 346.659 53.4366C346.946 52.8331 347.375 52.3165 347.934 51.9091C348.115 51.7766 348.132 51.5136 347.971 51.3559ZM352 33.9766C344.571 33.9766 338.558 40.0106 338.558 47.4678C338.558 52.888 341.715 57.4446 346.103 59.5984C346.364 59.726 346.66 59.5054 346.616 59.2184C346.473 58.2841 346.355 57.3545 346.291 56.5479C346.282 56.4373 346.222 56.3379 346.131 56.2761C343.286 54.3605 341.416 51.0955 341.439 47.4016C341.474 41.6053 346.197 36.8827 351.972 36.8676C357.808 36.8523 362.561 41.6134 362.561 47.4678C362.561 51.1979 360.632 54.4839 357.722 56.3737C357.662 57.2191 357.538 58.216 357.384 59.2183C357.34 59.5054 357.636 59.726 357.896 59.5984C362.275 57.4494 365.442 52.8997 365.442 47.4678C365.442 40.0118 359.43 33.9766 352 33.9766ZM352 43.6132C349.879 43.6132 348.159 45.339 348.159 47.4678C348.159 49.5967 349.879 51.3225 352 51.3225C354.121 51.3225 355.84 49.5967 355.84 47.4678C355.84 45.339 354.121 43.6132 352 43.6132Z" fill="white"/>
<g filter="url(#filter1_d_1007_43)">
<circle cx="64" cy="701" r="34" fill="#FF6476"/>
</g>
<path d="M66.592 693H54.0747C52.9288 693 52 693.929 52 695.075V707.592C52 708.738 52.9288 709.667 54.0747 709.667H66.592C67.7378 709.667 68.6667 708.738 68.6667 707.592V695.075C68.6667 693.929 67.7378 693 66.592 693ZM74.8125 694.636L70.0556 697.918V704.749L74.8125 708.026C75.7326 708.66 77 708.013 77 706.906V695.756C77 694.654 75.737 694.003 74.8125 694.636Z" fill="white"/>
<defs>
<filter id="filter0_d_1007_43" x="288" y="0" width="128" height="128" filterUnits="userSpaceOnUse" color-interpolation-filters="sRGB">
<feFlood flood-opacity="0" result="BackgroundImageFix"/>
<feColorMatrix in="SourceAlpha" type="matrix" values="0 0 0 0 0 0 0 0 0 0 0 0 0 0 0 0 0 0 127 0" result="hardAlpha"/>
<feOffset dy="15"/>
<feGaussianBlur stdDeviation="15"/>
<feComposite in2="hardAlpha" operator="out"/>
<feColorMatrix type="matrix" values="0 0 0 0 0 0 0 0 0 0 0 0 0 0 0 0 0 0 0.1 0"/>
<feBlend mode="normal" in2="BackgroundImageFix" result="effect1_dropShadow_1007_43"/>
<feBlend mode="normal" in="SourceGraphic" in2="effect1_dropShadow_1007_43" result="shape"/>
</filter>
<filter id="filter1_d_1007_43" x="0" y="652" width="128" height="128" filterUnits="userSpaceOnUse" color-interpolation-filters="sRGB">
<feFlood flood-opacity="0" result="BackgroundImageFix"/>
<feColorMatrix in="SourceAlpha" type="matrix" values="0 0 0 0 0 0 0 0 0 0 0 0 0 0 0 0 0 0 127 0" result="hardAlpha"/>
<feOffset dy="15"/>
<feGaussianBlur stdDeviation="15"/>
<feComposite in2="hardAlpha" operator="out"/>
<feColorMatrix type="matrix" values="0 0 0 0 0 0 0 0 0 0 0 0 0 0 0 0 0 0 0.1 0"/>
<feBlend mode="normal" in2="BackgroundImageFix" result="effect1_dropShadow_1007_43"/>
<feBlend mode="normal" in="SourceGraphic" in2="effect1_dropShadow_1007_43" result="shape"/>
</filter>
</defs>
</svg>
